<svg xmlns="http://www.w3.org/2000/svg" fill="none" viewBox="0 0 500 500">
  <g fill="#2844B1" opacity=".7">
    <path d="M225 375.4a1.9 1.9 0 10-3.7.5 1.9 1.9 0 003.7-.5z" opacity=".6"/>
    <path d="M488.1 202.6a1.6 1.6 0 10-3 .4 1.6 1.6 0 003-.4z" opacity=".9"/>
    <path d="M215 45.3a2.2 2.2 0 10-4.3 1.3 2.2 2.2 0 004.2-1.3z" opacity=".7"/>
    <path d="M440.4 445.4a1.9 1.9 0 10-3.3 1.7 1.9 1.9 0 003.3-1.7z" opacity=".3"/>
    <path d="M62.8 255.9a1.9 1.9 0 10-3.1 2 1.9 1.9 0 003.1-2z" opacity=".4"/>
    <path d="M279.6 337.2a2.2 2.2 0 10-3.6 2.5 2.2 2.2 0 003.6-2.5z" opacity=".3"/>
    <path d="M115 227a1.2 1.2 0 10-1.3 2.2 1.2 1.2 0 001.3-2.1z" opacity=".1"/>
    <path d="M334.4 462a1.3 1.3 0 10-1.3 2.2 1.3 1.3 0 001.3-2.2z" opacity=".8"/>
    <path d="M104.9 175.1a1.2 1.2 0 10-1 2.3 1.2 1.2 0 001-2.3z" opacity=".5"/>
    <path d="M30.6 78.8A2.2 2.2 0 1030 83a2.2 2.2 0 00.6-4.3zM164.1 162.7a1.9 1.9 0 101.8 3.3 1.9 1.9 0 00-1.8-3.3z" opacity=".9"/>
    <path d="M327.5 343.3a1.3 1.3 0 101.2 2.2 1.3 1.3 0 00-1.2-2.2zM414 411.6l.2.5c.6 1 2 1.4 3 .9l.6-.4c1-.5 1.4-1.9.8-3l-.3-.5c-.6-1-2-1.4-3-.8l-.6.3c-1 .6-1.4 2-.8 3zM329.2 59a2.2 2.2 0 102.3 3.8 2.2 2.2 0 00-2.3-3.7z" opacity=".8"/>
    <path d="M479.3 482.7a1.3 1.3 0 101.4 2.1 1.3 1.3 0 00-1.4-2.1z" opacity=".3"/>
    <path d="M476.9 18.2a2.2 2.2 0 103.1 3 2.2 2.2 0 00-3.1-3z" opacity=".5"/>
    <path d="M26 423.2a1.9 1.9 0 103 2.4 1.9 1.9 0 00-3-2.4z" opacity=".2"/>
    <path d="M172 352.6l1.2-.2c1.2-.2 2-1.3 1.9-2.5l-.2-1.2c-.2-1.2-1.3-2-2.5-1.9l-1.2.2c-1.2.2-2 1.3-1.9 2.5l.2 1.2c.2 1.2 1.3 2 2.5 1.9z" opacity=".5"/>
    <path d="M118.5 80.1l1.9-.4c1.1-.3 1.9-1.4 1.6-2.6l-.4-1.8c-.3-1.2-1.5-2-2.6-1.7l-1.9.4c-1.1.3-1.9 1.5-1.6 2.7l.4 1.8c.3 1.2 1.5 1.9 2.6 1.6z" opacity=".3"/>
    <path d="M238.2 315.5a1.9 1.9 0 103.6-1 1.9 1.9 0 00-3.6 1z" opacity=".6"/>
    <path d="M431 303.1l1-.5c1.2-.5 1.6-1.8 1.1-3l-.5-1c-.5-1.1-1.8-1.6-3-1.1l-1 .5c-1.1.5-1.6 1.9-1.1 3l.5 1c.5 1.2 1.9 1.6 3 1.1z" opacity=".3"/>
    <path d="M222.8 47.9a1 1 0 101.3-1.4 1 1 0 00-1.3 1.4z" opacity=".4"/>
    <path d="M135.2 298.3a2.2 2.2 0 102.7-3.5 2.2 2.2 0 00-2.7 3.5z" opacity=".2"/>
    <path d="M204.2 380.2l.2-.6c.3-1.1-.5-2.3-1.7-2.6l-.6-.1c-1.1-.3-2.3.4-2.6 1.6l-.1.6c-.3 1.2.4 2.4 1.6 2.6l.6.2c1.2.3 2.4-.5 2.6-1.7z" opacity=".6"/>
    <path d="M363.5 73.7a1.9 1.9 0 10-.8-3.7 1.9 1.9 0 00.8 3.7zM411.8 78.1a2.2 2.2 0 10-3-3 2.2 2.2 0 003 3zM156.6 421a1 1 0 10-1.3-1.3 1 1 0 001.3 1.3zM159.8 376.8a2.2 2.2 0 10-4-1.7 2.2 2.2 0 004 1.7z" opacity=".5"/>
  </g>
</svg>
