<svg width="2400" height="800" fill="#2844B1" xmlns="http://www.w3.org/2000/svg" xmlns:xlink="http://www.w3.org/1999/xlink"><defs><g id="a"><path opacity=".6" d="M360 600.6a3 3 0 10-6 .8 3 3 0 006-.8z"/><path opacity=".9" d="M781 324.2a2.5 2.5 0 10-5 .6 2.5 2.5 0 005-.6z"/><path opacity=".7" d="M343.9 72.5a3.5 3.5 0 10-6.8 2 3.5 3.5 0 006.8-2z"/><path opacity=".3" d="M704.7 712.6a3 3 0 10-5.4 2.8 3 3 0 005.4-2.8z"/><path opacity=".4" d="M100.5 409.4a3 3 0 10-5 3.2 3 3 0 005-3.2z"/><path opacity=".3" d="M447.4 539.5a3.5 3.5 0 10-5.8 4 3.5 3.5 0 005.8-4z"/><path opacity=".1" d="M184 363.3a2 2 0 10-2 3.4 2 2 0 002-3.4z"/><path opacity=".8" d="M535 739.3a2 2 0 10-2 3.4 2 2 0 002-3.4z"/><path opacity=".5" d="M167.8 280.2a2 2 0 10-1.6 3.6 2 2 0 001.6-3.6z"/><path opacity=".9" d="M49 126a3.5 3.5 0 10-1 7 3.5 3.5 0 001-7zM262.6 260.3a3 3 0 102.8 5.4 3 3 0 00-2.8-5.4z"/><path opacity=".8" d="M524 549.2a2 2 0 102 3.6 2 2 0 00-2-3.6zM662.3 658.5l.5.9c1 1.7 3 2.3 4.7 1.3l.9-.5c1.7-1 2.3-3 1.3-4.7l-.5-.9c-1-1.7-3-2.3-4.7-1.3l-.9.5c-1.7 1-2.3 3-1.3 4.7zM526.7 94.5a3.5 3.5 0 103.6 6 3.5 3.5 0 00-3.6-6z"/><path opacity=".3" d="M767 772.3a2 2 0 102 3.4 2 2 0 00-2-3.4z"/><path opacity=".5" d="M763 29a3.5 3.5 0 105 5 3.5 3.5 0 00-5-5z"/><path opacity=".2" d="M41.7 677.1a3 3 0 104.6 3.8 3 3 0 00-4.6-3.8z"/><path opacity=".5" d="M275.1 564.1l2-.3c2-.2 3.3-2 3-4l-.3-2c-.2-1.8-2-3.2-4-2.9l-2 .3c-1.8.2-3.2 2-2.9 4l.3 2c.2 1.8 2 3.2 4 2.9z"/><path opacity=".3" d="M189.7 128.2l2.9-.7c1.9-.4 3-2.3 2.6-4.2l-.7-2.9c-.4-1.9-2.3-3-4.2-2.6l-2.9.7c-1.9.4-3 2.3-2.6 4.2l.7 2.9c.4 1.9 2.3 3 4.2 2.6z"/><path opacity=".6" d="M381.1 504.8a3 3 0 105.8-1.6 3 3 0 00-5.8 1.6z"/><path opacity=".3" d="M689.5 485l1.8-.9c1.8-.8 2.5-2.9 1.7-4.6l-.9-1.8c-.8-1.8-2.9-2.5-4.6-1.7l-1.8.9c-1.8.8-2.5 2.9-1.7 4.6l.9 1.8c.8 1.8 2.9 2.5 4.6 1.7z"/><path opacity=".4" d="M356.5 76.6a1.5 1.5 0 102-2.2 1.5 1.5 0 00-2 2.2z"/><path opacity=".2" d="M216.3 477.3a3.5 3.5 0 104.4-5.5 3.5 3.5 0 00-4.4 5.4z"/><path opacity=".6" d="M326.8 608.4l.2-1c.4-1.9-.7-3.8-2.6-4.2l-1-.2c-1.9-.4-3.8.7-4.2 2.6l-.2 1c-.4 1.9.7 3.8 2.6 4.2l1 .2c1.9.4 3.8-.7 4.2-2.6z"/><path opacity=".5" d="M581.7 118a3 3 0 10-1.4-6 3 3 0 001.4 6zM659 125a3.5 3.5 0 10-5-5 3.5 3.5 0 005 5zM250.6 673.5a1.5 1.5 0 10-2.2-2 1.5 1.5 0 002.2 2zM255.7 602.9a3.5 3.5 0 10-6.4-2.8 3.5 3.5 0 006.4 2.8z"/></g></defs><use xlink:href="#a"/><use xlink:href="#a" x="800"/><use xlink:href="#a" x="1600"/></svg>